<?xml version="1.0" encoding="utf-8"?>
<!-- Generator: Adobe Illustrator 18.0.0, SVG Export Plug-In . SVG Version: 6.00 Build 0)  -->
<!DOCTYPE svg PUBLIC "-//W3C//DTD SVG 1.1//EN" "http://www.w3.org/Graphics/SVG/1.1/DTD/svg11.dtd">
<svg version="1.1" id="Layer_1" xmlns="http://www.w3.org/2000/svg" xmlns:xlink="http://www.w3.org/1999/xlink" x="0px" y="0px"
	 viewBox="0 0 100 100" enable-background="new 0 0 100 100" xml:space="preserve">
<g>
	<g>
		<path fill="#fafafa" d="M41,87.2c-0.9,0-1.6-0.7-1.6-1.5s0.7-1.5,1.6-1.5h18c0.9,0,1.5,0.7,1.5,1.5s-0.7,1.5-1.5,1.5H41z"/>
		<path fill="#fafafa" d="M43,93.4c-0.9,0-1.5-0.7-1.5-1.5s0.7-1.5,1.5-1.5h14c0.9,0,1.5,0.7,1.5,1.5s-0.7,1.5-1.5,1.5H43z"/>
		<path fill="#fafafa" d="M48.5,72c0,0.9-0.7,1.5-1.5,1.5s-1.5-0.7-1.5-1.5c0-6.5-0.2-11.4-1.1-15.9c-0.9-4.5-2.5-8.6-5.3-13.7
			c-0.4-0.7-0.1-1.7,0.6-2.1c0.7-0.4,1.7-0.1,2.1,0.6c3,5.4,4.7,9.8,5.6,14.6C48.3,60.2,48.5,65.2,48.5,72z"/>
		<path fill="#fafafa" d="M54.5,72c0,0.9-0.7,1.5-1.5,1.5s-1.5-0.7-1.5-1.5c0-6.7,0.2-11.8,1.1-16.5c0.9-4.8,2.6-9.2,5.6-14.6
			c0.4-0.7,1.4-1,2.1-0.6c0.7,0.4,1,1.4,0.6,2.1c-2.8,5.1-4.4,9.2-5.3,13.7C54.7,60.6,54.5,65.5,54.5,72z"/>
		<path fill="#fafafa" d="M39.9,43.1c-0.8-0.3-1.3-1.1-1-1.9c0.3-0.8,1.1-1.3,1.9-1c1.1,0.3,2,0.8,2.9,1.2l0.1,0
			c1.3,0.7,2.5,1.2,3.3,0.5l1.9-1.6c0.7-0.5,1.6-0.4,2.2,0.2c0.5,0.7,0.4,1.6-0.2,2.2l-1.9,1.6c-2.4,1.9-4.3,1-6.6-0.2l-0.1,0
			C41.6,43.8,40.8,43.4,39.9,43.1z"/>
		<path fill="#fafafa" d="M51.5,8c0,0.9-0.7,1.5-1.5,1.5c-0.9,0-1.5-0.7-1.5-1.5V2c0-0.9,0.7-1.5,1.5-1.5c0.9,0,1.5,0.7,1.5,1.5V8z"
			/>
		<path fill="#fafafa" d="M59.1,40.2c0.8-0.3,1.7,0.2,1.9,1c0.3,0.8-0.2,1.7-1,1.9c-0.8,0.3-1.7,0.7-2.4,1.1l-0.1,0
			c-2.3,1.2-4.3,2.1-6.6,0.2L49,42.9c-0.7-0.5-0.8-1.5-0.2-2.2c0.5-0.7,1.5-0.8,2.2-0.2l1.9,1.6c0.8,0.7,1.9,0.1,3.3-0.5l0.1,0
			C57.1,41,58,40.5,59.1,40.2z"/>
		<path fill="#fafafa" d="M69.5,24.5c5,5,8.1,11.9,8.1,19.5c0,3-0.5,5.8-1.4,8.5c-0.9,2.8-2.2,5.4-3.9,7.7c-2.8,3.9-5.1,6.4-6.9,8.4
			c-3.2,3.6-4.6,5.1-4.6,10.3c0,0.9-0.7,1.5-1.5,1.5h0h-9H41c-0.9,0-1.6-0.7-1.6-1.5c0-5.2-1.4-6.7-4.6-10.2l0,0l0,0
			c-1.8-2-4.1-4.5-7-8.5c-1.7-2.3-3-4.9-3.9-7.7C23,49.8,22.5,47,22.5,44c0-3.7,0.7-7.3,2.1-10.5l0-0.1c1.4-3.4,3.4-6.4,5.9-8.9
			c2.5-2.5,5.6-4.6,8.9-6v0c3.2-1.3,6.8-2.1,10.5-2.1c3.7,0,7.3,0.7,10.5,2.1C63.9,20,66.9,22,69.5,24.5L69.5,24.5z M74.4,44
			c0-6.7-2.7-12.9-7.2-17.3c-2.3-2.3-5-4.1-7.9-5.3c-2.9-1.2-6-1.8-9.3-1.8c-3.3,0-6.5,0.7-9.3,1.8v0l0,0c-3,1.2-5.7,3-7.9,5.3
			c-2.2,2.2-4,4.9-5.3,7.9l0,0.1c-1.2,2.9-1.8,6-1.8,9.3c0,2.6,0.4,5.2,1.2,7.6c0.8,2.5,2,4.8,3.5,6.8c2.8,3.8,5.1,6.3,6.8,8.3l0,0
			c3.4,3.8,5.2,5.6,5.4,10.8h7.5h7.5c0.3-5.2,1.9-7,5.4-10.8c1.7-1.9,3.9-4.4,6.7-8.2c1.5-2,2.7-4.3,3.5-6.8
			C74,49.2,74.4,46.7,74.4,44z"/>
		<path fill="#fafafa" d="M45,99.5c-0.9,0-1.5-0.7-1.5-1.5s0.7-1.5,1.5-1.5h10c0.9,0,1.5,0.7,1.5,1.5s-0.7,1.5-1.5,1.5H45z"/>
		<path fill="#fafafa" d="M69,13.5c-0.4,0.7-1.4,1-2.1,0.6c-0.7-0.4-1-1.4-0.6-2.1l3-5.2c0.4-0.7,1.4-1,2.1-0.6
			c0.7,0.4,1,1.4,0.6,2.1L69,13.5z"/>
		<path fill="#fafafa" d="M33.7,12c0.4,0.7,0.2,1.7-0.6,2.1c-0.7,0.4-1.7,0.2-2.1-0.6l-3-5.2c-0.4-0.7-0.2-1.7,0.6-2.1
			c0.7-0.4,1.7-0.2,2.1,0.6L33.7,12z"/>
		<path fill="#fafafa" d="M20.2,24.3c0.7,0.4,1,1.4,0.6,2.1c-0.4,0.7-1.4,1-2.1,0.6l-5.2-3c-0.7-0.4-1-1.4-0.6-2.1
			c0.4-0.7,1.4-1,2.1-0.6L20.2,24.3z"/>
		<path fill="#fafafa" d="M81.3,27c-0.7,0.4-1.7,0.2-2.1-0.6c-0.4-0.7-0.2-1.7,0.6-2.1l5.2-3c0.7-0.4,1.7-0.2,2.1,0.6
			c0.4,0.7,0.2,1.7-0.6,2.1L81.3,27z"/>
		<path fill="#fafafa" d="M33.9,50.1c0.3,0.8,0,1.7-0.8,2c-0.8,0.3-1.7,0-2-0.8c-0.5-1.2-0.9-2.6-1.2-3.9c-0.3-1.3-0.4-2.7-0.4-4.1
			c0-0.9,0.7-1.5,1.5-1.5c0.9,0,1.5,0.7,1.5,1.5c0,1.2,0.1,2.4,0.3,3.5C33.1,48,33.5,49.1,33.9,50.1L33.9,50.1z M33.9,36.5
			c-0.3,0.8-1.2,1.2-2,0.8s-1.2-1.2-0.8-2c0.5-1.2,1.2-2.4,1.9-3.5l0,0l0,0c0.7-1.1,1.6-2.1,2.5-3.1c0.9-0.9,1.9-1.8,3.1-2.5v0
			c1.1-0.7,2.2-1.4,3.5-1.9c1.2-0.5,2.5-0.9,3.9-1.2c1.3-0.3,2.7-0.4,4.1-0.4c0.9,0,1.5,0.7,1.5,1.5s-0.7,1.5-1.5,1.5
			c-1.2,0-2.4,0.1-3.5,0.3c-1.2,0.2-2.3,0.6-3.3,1c-1,0.4-2,1-2.9,1.6l0,0h0c-0.9,0.6-1.8,1.3-2.6,2.1c-0.8,0.8-1.5,1.7-2.1,2.6l0,0
			C34.9,34.5,34.4,35.5,33.9,36.5z"/>
	</g>
</g>
</svg>
