<?xml version="1.0" encoding="utf-8"?>
<!-- Generator: Adobe Illustrator 18.0.0, SVG Export Plug-In . SVG Version: 6.00 Build 0)  -->
<!DOCTYPE svg PUBLIC "-//W3C//DTD SVG 1.1//EN" "http://www.w3.org/Graphics/SVG/1.1/DTD/svg11.dtd">
<svg version="1.1" id="Layer_1" xmlns="http://www.w3.org/2000/svg" xmlns:xlink="http://www.w3.org/1999/xlink" x="0px" y="0px"
	 viewBox="0 0 100 100" enable-background="new 0 0 100 100" xml:space="preserve">
<g>
	<g>
		<path fill="#fafafa" d="M30.3,78.3c0.6-0.6,1.6-0.6,2.2,0c0.6,0.6,0.6,1.6,0,2.2l-7.7,7.7c-0.6,0.6-1.6,0.6-2.2,0
			c-0.3-0.3-0.5-0.7-0.5-1.1h0V62.4c0-0.6,0.3-1.1,0.8-1.4L78.5,24c0.7-0.5,1.7-0.3,2.1,0.4c0.5,0.7,0.3,1.7-0.4,2.1l-55,36.7v20.2
			L30.3,78.3z"/>
		<path fill="#fafafa" d="M28.8,69.6c-0.6-0.6-0.6-1.6,0-2.2s1.6-0.6,2.2,0l17.3,17.3l48.2-69.3v-0.6L5,41.5l19.8,19.8
			c0.6,0.6,0.6,1.6,0,2.2c-0.6,0.6-1.6,0.6-2.2,0L0.9,41.8l0,0c-0.2-0.2-0.3-0.4-0.4-0.7c-0.2-0.8,0.2-1.7,1.1-1.9l95.8-27.8
			c0.2-0.1,0.4-0.1,0.6-0.1c0.9,0,1.5,0.7,1.5,1.5V16h0c0,0.3-0.1,0.6-0.3,0.9L49.7,88l0,0c-0.1,0.1-0.1,0.1-0.2,0.2
			c-0.6,0.6-1.6,0.6-2.2,0L28.8,69.6z"/>
	</g>
</g>
</svg>
