<?xml version="1.0" encoding="utf-8"?>
<!-- Generator: Adobe Illustrator 18.0.0, SVG Export Plug-In . SVG Version: 6.00 Build 0)  -->
<!DOCTYPE svg PUBLIC "-//W3C//DTD SVG 1.1//EN" "http://www.w3.org/Graphics/SVG/1.1/DTD/svg11.dtd">
<svg version="1.1" id="Layer_1" xmlns="http://www.w3.org/2000/svg" xmlns:xlink="http://www.w3.org/1999/xlink" x="0px" y="0px"
	 viewBox="0 0 100 100" enable-background="new 0 0 100 100" xml:space="preserve">
<g>
	<path fill="#fafafa" d="M44.8,52.4V29c1.4-0.5,2.4-1.9,2.4-3.4c0-2-1.7-3.7-3.7-3.7H29.3c-2,0-3.7,1.7-3.7,3.7c0,1.6,1,2.9,2.4,3.4
		v23.4C18.4,55.9,12,64.9,12,75.2c0,13.4,10.9,24.3,24.3,24.3c13.4,0,24.3-10.9,24.3-24.3C60.7,64.9,54.3,55.9,44.8,52.4z
		 M29.3,24.7h14.2c0.5,0,0.9,0.4,0.9,0.9c0,0.5-0.4,0.9-0.9,0.9H29.3c-0.5,0-0.9-0.4-0.9-0.9C28.4,25,28.8,24.7,29.3,24.7z
		 M29.8,54.7c0.6-0.2,1-0.7,1-1.3V29.2H42v24.2c0,0.6,0.4,1.2,1,1.3c6.5,2.1,11.5,7.1,13.7,13.2c-1.1-0.3-2.5-0.6-4.2-0.9
		c-4.3-0.6-10-1-16.1-1c-6.1,0-11.8,0.4-16.1,1c-1.7,0.3-3.1,0.5-4.2,0.9C18.3,61.8,23.3,56.8,29.8,54.7z M56.6,70.9
		c-2.5,0.9-9.2,2-20.2,2c-10.9,0-17.7-1.1-20.2-2c2.5-0.9,9.2-2,20.2-2C47.3,68.9,54.1,70,56.6,70.9z M36.4,96.7
		c-11.9,0-21.5-9.6-21.5-21.5c0-0.6,0-1.2,0.1-1.7c1.2,0.5,3,0.9,5.3,1.2c4.3,0.6,10,1,16.1,1c6.1,0,11.8-0.4,16.1-1
		c2.3-0.4,4.1-0.8,5.3-1.2c0,0.6,0.1,1.2,0.1,1.7C57.9,87,48.2,96.7,36.4,96.7z"/>
	<path fill="#fafafa" d="M21.7,64.8c0.3,0.2,0.6,0.4,0.9,0.4c0.4,0,0.8-0.2,1.1-0.5c1.4-1.5,2.9-2.8,4.6-3.9
		c0.7-0.4,0.9-1.3,0.5-1.9c-0.4-0.7-1.3-0.9-1.9-0.5c-1.9,1.2-3.7,2.7-5.2,4.4C21,63.4,21.1,64.3,21.7,64.8z"/>
	<path fill="#fafafa" d="M52.1,82.3c-0.7-0.4-1.5-0.2-1.9,0.5c-0.5,0.8-1.1,1.6-1.8,2.4c-0.5,0.6-0.5,1.5,0.1,2
		c0.3,0.2,0.6,0.3,0.9,0.3c0.4,0,0.8-0.2,1.1-0.5c0.7-0.9,1.4-1.8,2-2.7C53,83.6,52.8,82.7,52.1,82.3z"/>
	<path fill="#fafafa" d="M45.9,87.5c-2.7,2.1-6,3.5-9.5,3.8c-0.8,0.1-1.3,0.8-1.3,1.6c0.1,0.7,0.7,1.3,1.4,1.3c0,0,0.1,0,0.1,0
		c4-0.4,7.8-1.9,10.9-4.4c0.6-0.5,0.7-1.4,0.2-2C47.4,87.1,46.5,87,45.9,87.5z"/>
	<path fill="#fafafa" d="M88,29.1c0-2.2-1.8-3.9-3.9-3.9H68.2c-2.2,0-3.9,1.8-3.9,3.9c0,1.7,1.1,3.2,2.6,3.7v57.5
		c0,5.1,4.1,9.2,9.2,9.2c5.1,0,9.2-4.1,9.2-9.2V32.8C86.9,32.2,88,30.8,88,29.1z M68.2,27.9H84c0.6,0,1.1,0.5,1.1,1.1
		c0,0.6-0.5,1.1-1.1,1.1H68.2c-0.6,0-1.1-0.5-1.1-1.1C67.1,28.4,67.6,27.9,68.2,27.9z M76.1,43.8c-1.3,0-4.2,0.1-6.4,0.8V33h12.8
		v11.6C80.3,43.9,77.4,43.8,76.1,43.8z M81.6,47.3c-1.1,0.3-3,0.6-5.5,0.6s-4.4-0.3-5.5-0.6c1.1-0.3,3-0.6,5.5-0.6
		C78.6,46.7,80.5,47,81.6,47.3z M76.1,96.7c-3.5,0-6.4-2.9-6.4-6.4V49.9c2.2,0.7,5.1,0.8,6.4,0.8s4.2-0.1,6.4-0.8v6.7h-6
		c-0.8,0-1.4,0.6-1.4,1.4c0,0.8,0.6,1.4,1.4,1.4h6v1.4h-2c-0.8,0-1.4,0.6-1.4,1.4c0,0.8,0.6,1.4,1.4,1.4h2v1.4h-6
		c-0.8,0-1.4,0.6-1.4,1.4s0.6,1.4,1.4,1.4h6v1.4h-2c-0.8,0-1.4,0.6-1.4,1.4s0.6,1.4,1.4,1.4h2v1.4h-6c-0.8,0-1.4,0.6-1.4,1.4
		s0.6,1.4,1.4,1.4h6v1.4h-2c-0.8,0-1.4,0.6-1.4,1.4s0.6,1.4,1.4,1.4h2V82h-6c-0.8,0-1.4,0.6-1.4,1.4s0.6,1.4,1.4,1.4h6v5.4
		C82.5,93.8,79.6,96.7,76.1,96.7z"/>
	<g>
		<g>
			<path fill="#fafafa" d="M31.5,9.2c2.4,0,4.3-1.9,4.3-4.3c0-2.4-1.9-4.3-4.3-4.3s-4.3,1.9-4.3,4.3C27.2,7.2,29.1,9.2,31.5,9.2z
				 M31.5,3.3C32.3,3.3,33,4,33,4.8c0,0.8-0.7,1.5-1.5,1.5c-0.8,0-1.5-0.7-1.5-1.5C30,4,30.7,3.3,31.5,3.3z"/>
			<path fill="#fafafa" d="M31.5,19.9c2.4,0,4.3-1.9,4.3-4.3c0-2.4-1.9-4.3-4.3-4.3s-4.3,1.9-4.3,4.3C27.2,18,29.1,19.9,31.5,19.9z
				 M31.5,14.1c0.8,0,1.5,0.7,1.5,1.5c0,0.8-0.7,1.5-1.5,1.5c-0.8,0-1.5-0.7-1.5-1.5C30,14.7,30.7,14.1,31.5,14.1z"/>
		</g>
		<path fill="#fafafa" d="M41.2,14.5c2.4,0,4.3-1.9,4.3-4.3c0-2.4-1.9-4.3-4.3-4.3c-2.4,0-4.3,1.9-4.3,4.3S38.9,14.5,41.2,14.5z
			 M41.2,8.7c0.8,0,1.5,0.7,1.5,1.5c0,0.8-0.7,1.5-1.5,1.5c-0.8,0-1.5-0.7-1.5-1.5C39.7,9.4,40.4,8.7,41.2,8.7z"/>
	</g>
	<path fill="#fafafa" d="M38.6,43.1c0.8,0,1.4-0.6,1.4-1.4v-8.4c0-0.8-0.6-1.4-1.4-1.4s-1.4,0.6-1.4,1.4v8.4
		C37.2,42.5,37.8,43.1,38.6,43.1z"/>
	<path fill="#fafafa" d="M38.6,51.6c0.8,0,1.4-0.6,1.4-1.4v-3.6c0-0.8-0.6-1.4-1.4-1.4s-1.4,0.6-1.4,1.4v3.6
		C37.2,51,37.8,51.6,38.6,51.6z"/>
</g>
</svg>
