<?xml version="1.0" encoding="utf-8"?>
<!-- Generator: Adobe Illustrator 18.0.0, SVG Export Plug-In . SVG Version: 6.00 Build 0)  -->
<!DOCTYPE svg PUBLIC "-//W3C//DTD SVG 1.1//EN" "http://www.w3.org/Graphics/SVG/1.1/DTD/svg11.dtd">
<svg version="1.1" id="Layer_1" xmlns="http://www.w3.org/2000/svg" xmlns:xlink="http://www.w3.org/1999/xlink" x="0px" y="0px"
	 viewBox="0 0 100 100" enable-background="new 0 0 100 100" xml:space="preserve">
<g>
	<path fill="#fafafa" d="M23.2,1.2H4.3C2.2,1.2,0.5,2.9,0.5,5v90c0,2.1,1.7,3.8,3.8,3.8h18.9c2.1,0,3.8-1.7,3.8-3.8
		c0-22.5,0-90,0-90C27,2.9,25.3,1.2,23.2,1.2z M23.2,96H4.3c-0.5,0-1-0.4-1-1V5c0-0.5,0.4-1,1-1h18.9c0.5,0,1,0.4,1,1v18.8H11.3
		c-0.8,0-1.4,0.6-1.4,1.4s0.6,1.4,1.4,1.4h12.8v5h-7.1c-0.8,0-1.4,0.6-1.4,1.4c0,0.8,0.6,1.4,1.4,1.4h7.1v5H11.3
		c-0.8,0-1.4,0.6-1.4,1.4c0,0.8,0.6,1.4,1.4,1.4h12.8v5h-7.1c-0.8,0-1.4,0.6-1.4,1.4c0,0.8,0.6,1.4,1.4,1.4h7.1v5H11.3
		c-0.8,0-1.4,0.6-1.4,1.4c0,0.8,0.6,1.4,1.4,1.4h12.8v5h-7.1c-0.8,0-1.4,0.6-1.4,1.4c0,0.8,0.6,1.4,1.4,1.4h7.1v5H11.3
		c-0.8,0-1.4,0.6-1.4,1.4s0.6,1.4,1.4,1.4h12.8v5h-7.1c-0.8,0-1.4,0.6-1.4,1.4s0.6,1.4,1.4,1.4h7.1v5H11.3c-0.8,0-1.4,0.6-1.4,1.4
		s0.6,1.4,1.4,1.4h12.8V95C24.1,95.5,23.7,96,23.2,96z"/>
	<path fill="#fafafa" d="M13.7,17.4c2.7,0,4.8-2.2,4.8-4.8c0-2.7-2.2-4.8-4.8-4.8c-2.7,0-4.8,2.2-4.8,4.8
		C8.9,15.3,11.1,17.4,13.7,17.4z M13.7,10.6c1.1,0,2,0.9,2,2s-0.9,2-2,2c-1.1,0-2-0.9-2-2C11.7,11.5,12.6,10.6,13.7,10.6z"/>
	<path fill="#fafafa" d="M52.1,83.1c4.4,0,17.6,0,17.6,0c0,0,0,0,0,0c0.8,0,1.4-0.6,1.4-1.4c0-0.3-0.1-0.6-0.3-0.9
		c-4.6-6.2-13-19.1-17.6-25.3c-0.4-0.5-1-0.7-1.6-0.5c-0.6,0.2-1,0.7-1,1.3c0,0,0,19,0,25.4C50.7,82.5,51.3,83.1,52.1,83.1z
		 M53.5,60.8l13.5,19.5H53.5L53.5,60.8L53.5,60.8z"/>
	<path fill="#fafafa" d="M99.2,96.5C82.4,73.4,35.3,1.8,35.3,1.8c-0.3-0.5-1-0.7-1.6-0.6c-0.6,0.2-1,0.7-1,1.4c0,0,0,71.1,0,94.7
		c0,0.8,0.6,1.4,1.4,1.4h63.9c0,0,0,0,0,0c0.8,0,1.4-0.6,1.4-1.4C99.5,97,99.4,96.8,99.2,96.5z M35.6,96v-6.8h6.4
		c0.8,0,1.4-0.6,1.4-1.4c0-0.8-0.6-1.4-1.4-1.4h-6.4v-3.6h3c0.8,0,1.4-0.6,1.4-1.4c0-0.8-0.6-1.4-1.4-1.4h-3v-3.6h6.4
		c0.8,0,1.4-0.6,1.4-1.4s-0.6-1.4-1.4-1.4h-6.4V70h3c0.8,0,1.4-0.6,1.4-1.4c0-0.8-0.6-1.4-1.4-1.4h-3v-3.6h6.4
		c0.8,0,1.4-0.6,1.4-1.4c0-0.8-0.6-1.4-1.4-1.4h-6.4v-3.6h3c0.8,0,1.4-0.6,1.4-1.4c0-0.8-0.6-1.4-1.4-1.4h-3v-3.6h6.4
		c0.8,0,1.4-0.6,1.4-1.4c0-0.8-0.6-1.4-1.4-1.4h-6.4v-3.6h3c0.8,0,1.4-0.6,1.4-1.4c0-0.8-0.6-1.4-1.4-1.4h-3V38h6.4
		c0.8,0,1.4-0.6,1.4-1.4c0-0.8-0.6-1.4-1.4-1.4h-6.4v-3.6h3c0.8,0,1.4-0.6,1.4-1.4s-0.6-1.4-1.4-1.4h-3v-3.6h6.4
		c0.8,0,1.4-0.6,1.4-1.4s-0.6-1.4-1.4-1.4h-6.4V7.3L95.4,96L35.6,96L35.6,96z"/>
</g>
</svg>
