<?xml version="1.0" encoding="utf-8"?>
<!-- Generator: Adobe Illustrator 18.0.0, SVG Export Plug-In . SVG Version: 6.00 Build 0)  -->
<!DOCTYPE svg PUBLIC "-//W3C//DTD SVG 1.1//EN" "http://www.w3.org/Graphics/SVG/1.1/DTD/svg11.dtd">
<svg version="1.1" id="Layer_1" xmlns="http://www.w3.org/2000/svg" xmlns:xlink="http://www.w3.org/1999/xlink" x="0px" y="0px"
	 viewBox="0 0 100 100" enable-background="new 0 0 100 100" xml:space="preserve">
<g>
	<path fill="#fafafa" d="M31.8,32c-5.1,0-9.6-3.5-10.9-8.5l-0.3-1.3H2.2c-0.9,0-1.7-0.6-1.7-1.5s0.7-1.5,1.7-1.5h18.4l0.3-1.3
		c1.3-4.9,5.8-8.5,10.9-8.5c5.1,0,9.6,3.5,10.9,8.5l0.3,1.3h54.9c0.9,0,1.7,0.6,1.7,1.5s-0.7,1.5-1.7,1.5H43l-0.3,1.3
		C41.4,28.5,36.9,32,31.8,32z M31.8,12.7c-4.4,0-8,3.6-8,8s3.6,8,8,8s8-3.6,8-8S36.2,12.7,31.8,12.7z"/>
	<path fill="#fafafa" d="M63.5,61.3c-5.1,0-9.6-3.7-10.9-8.6l-0.3-1.4H2.2c-0.9,0-1.7-0.6-1.7-1.5c0-0.9,0.7-1.5,1.7-1.5h50.2
		l0.3-1.2c1.3-4.9,5.8-8.4,10.9-8.4c5.1,0,9.6,3.4,10.9,8.4l0.3,1.2h23.1c0.9,0,1.7,0.6,1.7,1.5c0,0.9-0.7,1.5-1.7,1.5H74.8
		l-0.3,1.4C73.1,57.6,68.7,61.3,63.5,61.3z M63.5,42c-4.4,0-8,3.6-8,8s3.6,8,8,8s8-3.6,8-8S67.9,42,63.5,42z"/>
	<path fill="#fafafa" d="M31.8,90.6c-5.1,0-9.6-3.3-10.9-8.3l-0.3-1.1H2.2c-0.9,0-1.7-0.6-1.7-1.5c0-0.9,0.7-1.5,1.7-1.5h18.4
		l0.3-1.5c1.3-4.9,5.8-8.6,10.9-8.6s9.6,3.7,10.9,8.6l0.3,1.4h54.9c0.9,0,1.7,0.6,1.7,1.5c0,0.9-0.7,1.5-1.7,1.5H43l-0.3,1.1
		C41.4,87.3,36.9,90.6,31.8,90.6z M31.8,71.4c-4.4,0-8,3.6-8,8s3.6,8,8,8s8-3.6,8-8S36.2,71.4,31.8,71.4z"/>
</g>
</svg>
