<?xml version="1.0" encoding="utf-8"?>
<!-- Generator: Adobe Illustrator 18.0.0, SVG Export Plug-In . SVG Version: 6.00 Build 0)  -->
<!DOCTYPE svg PUBLIC "-//W3C//DTD SVG 1.1//EN" "http://www.w3.org/Graphics/SVG/1.1/DTD/svg11.dtd">
<svg version="1.1" id="Layer_1" xmlns="http://www.w3.org/2000/svg" xmlns:xlink="http://www.w3.org/1999/xlink" x="0px" y="0px"
	 viewBox="0 0 100 100" enable-background="new 0 0 100 100" xml:space="preserve">
<g>
	<path fill="#fafafa" d="M39.8,99.5c-1.4,0-2.6-0.5-3.6-1.5l-5.2-5.2c0,0,0,0,0,0l-1.4-1.4c-2-2-2-5.2,0-7.2l22.7-22.7l-1-1
		c-0.5-0.5-0.5-1.4,0-2c0.5-0.5,1.4-0.5,2,0l3.3,3.3l3.6-3.6c0.5-0.5,1.4-0.5,2,0l1.1,1.1L90,32.5c0.2-0.2,0.4-0.3,0.6-0.4l3.9-1.7
		c0.8-0.3,1.7-0.2,2.2,0.4c0.6,0.6,0.8,1.5,0.4,2.2L95.5,37c-0.1,0.2-0.2,0.4-0.4,0.6L68.4,64.4l1.1,1.1c0.3,0.3,0.4,0.6,0.4,1
		s-0.1,0.7-0.4,1L65.9,71l3.3,3.3c0.5,0.5,0.5,1.4,0,2c-0.5,0.5-1.4,0.5-2,0l-1-1L43.5,98C42.5,99,41.2,99.5,39.8,99.5z M37.8,95.6
		l0.4,0.4c0.4,0.4,1,0.7,1.7,0.7c0.6,0,1.2-0.2,1.7-0.7l22.7-22.7l-8.6-8.6c0,0,0,0,0,0l-1.3-1.3L31.6,86.2c-0.9,0.9-0.9,2.4,0,3.3
		l0.4,0.4l20.2-20.2c1.6-1.6,4.1-1.6,5.7,0l0,0c0.8,0.8,1.2,1.8,1.2,2.8c0,1.1-0.4,2.1-1.2,2.8L37.8,95.6z M34,91.9l1.8,1.8L56,73.4
		c0.5-0.5,0.5-1.3,0-1.8c-0.5-0.5-1.3-0.5-1.8,0L34,91.9z M58.6,63.8l5.3,5.3l2.6-2.6l-4.2-4.2c0,0,0,0,0,0l-1.1-1.1L58.6,63.8z
		 M65.7,61.7l0.8,0.8L93,35.9l0.9-2.2l-2.2,0.9L65.3,61.2L65.7,61.7z M17.8,76.1c-0.6,0-1.2-0.1-1.8-0.2l-2.3-0.6
		c-0.5-0.1-0.9-0.5-1-1c-0.1-0.5,0-1,0.4-1.3l5.6-5.6c0.6-0.6,1-1.5,1-2.4c0-0.9-0.4-1.8-1-2.4L16.2,60c-0.6-0.6-1.5-1-2.4-1
		c-0.9,0-1.8,0.4-2.4,1l-5.6,5.6c-0.3,0.4-0.9,0.5-1.3,0.4c-0.5-0.1-0.9-0.5-1-1l-0.6-2.3c-0.6-2.4,0-5,1.8-6.7l4.8-4.8
		c1.8-1.8,4.3-2.4,6.7-1.8l3.3,0.9l32.9-32.9L51.5,14c-0.6-2.4,0-5,1.8-6.7L58,2.5c1.8-1.8,4.3-2.4,6.7-1.8L67,1.3
		c0.5,0.1,0.9,0.5,1,1c0.1,0.5,0,1-0.4,1.3l-5.6,5.6c-0.6,0.6-1,1.5-1,2.4c0,0.9,0.4,1.8,1,2.4l2.5,2.5c0.6,0.6,1.5,1,2.4,1
		c0.9,0,1.8-0.4,2.4-1L75,11c0.3-0.4,0.9-0.5,1.3-0.4c0.5,0.1,0.9,0.5,1,1l0.6,2.3c0.6,2.4,0,5-1.8,6.7l-4.8,4.8
		c-1.8,1.8-4.3,2.4-6.7,1.8l-3.3-0.9L28.4,59.2l0.9,3.3c0.6,2.4,0,5-1.8,6.7L22.7,74C21.4,75.4,19.6,76.1,17.8,76.1z M16.8,73.2
		c1.4,0.4,3-0.1,4-1.1l4.8-4.8c1.1-1.1,1.5-2.6,1.1-4.1l-1.1-4.1c-0.1-0.5,0-1,0.4-1.3l34-34c0.3-0.3,0.9-0.5,1.3-0.4l4.1,1.1
		c1.4,0.4,3,0,4.1-1.1l4.8-4.8c1-1,1.5-2.6,1.1-4l-3.9,3.9c-1.2,1.2-2.7,1.8-4.4,1.8s-3.2-0.6-4.4-1.8L60.1,16
		c-1.2-1.2-1.8-2.7-1.8-4.4s0.6-3.2,1.8-4.4L64,3.4c-1.4-0.4-3,0.1-4,1.1l-4.8,4.8c-1.1,1.1-1.5,2.6-1.1,4.1l1.1,4.1
		c0.1,0.5,0,1-0.4,1.3l-34,34c-0.3,0.4-0.9,0.5-1.3,0.4l-4.1-1.1c-1.4-0.4-3,0-4.1,1.1l-4.8,4.8c-1,1-1.5,2.6-1.1,4L9.4,58
		c1.2-1.2,2.7-1.8,4.4-1.8s3.2,0.6,4.4,1.8l2.5,2.5c1.2,1.2,1.8,2.7,1.8,4.4c0,1.7-0.6,3.2-1.8,4.4L16.8,73.2z"/>
</g>
</svg>
